<svg width="361" height="12" viewBox="0 0 361 12" fill="none" xmlns="http://www.w3.org/2000/svg">
<line x1="0.28125" y1="-1.22938e-08" x2="0.281251" y2="11.25" stroke="#C2AFAF" stroke-width="0.5625"/>
<line x1="50.9062" y1="-1.22938e-08" x2="50.9062" y2="11.25" stroke="#C2AFAF" stroke-width="0.5625"/>
<line x1="101.531" y1="-1.22938e-08" x2="101.531" y2="11.25" stroke="#C2AFAF" stroke-width="0.5625"/>
<line x1="152.156" y1="-1.22938e-08" x2="152.156" y2="11.25" stroke="#C2AFAF" stroke-width="0.5625"/>
<line x1="202.781" y1="-1.22938e-08" x2="202.781" y2="11.25" stroke="#C2AFAF" stroke-width="0.5625"/>
<line x1="253.406" y1="-1.22938e-08" x2="253.406" y2="11.25" stroke="#C2AFAF" stroke-width="0.5625"/>
<line x1="304.031" y1="-1.22938e-08" x2="304.031" y2="11.25" stroke="#C2AFAF" stroke-width="0.5625"/>
<line x1="360.281" y1="-1.22938e-08" x2="360.281" y2="11.25" stroke="#C2AFAF" stroke-width="0.5625"/>
<line x1="5.90625" y1="5.625" x2="5.90625" y2="11.25" stroke="#C2AFAF" stroke-width="0.5625"/>
<line x1="56.5312" y1="5.625" x2="56.5312" y2="11.25" stroke="#C2AFAF" stroke-width="0.5625"/>
<line x1="107.156" y1="5.625" x2="107.156" y2="11.25" stroke="#C2AFAF" stroke-width="0.5625"/>
<line x1="157.781" y1="5.625" x2="157.781" y2="11.25" stroke="#C2AFAF" stroke-width="0.5625"/>
<line x1="208.406" y1="5.625" x2="208.406" y2="11.25" stroke="#C2AFAF" stroke-width="0.5625"/>
<line x1="259.031" y1="5.625" x2="259.031" y2="11.25" stroke="#C2AFAF" stroke-width="0.5625"/>
<line x1="309.656" y1="5.625" x2="309.656" y2="11.25" stroke="#C2AFAF" stroke-width="0.5625"/>
<line x1="28.4062" y1="5.625" x2="28.4062" y2="11.25" stroke="#C2AFAF" stroke-width="0.5625"/>
<line x1="79.0312" y1="5.625" x2="79.0312" y2="11.25" stroke="#C2AFAF" stroke-width="0.5625"/>
<line x1="129.656" y1="5.625" x2="129.656" y2="11.25" stroke="#C2AFAF" stroke-width="0.5625"/>
<line x1="180.281" y1="5.625" x2="180.281" y2="11.25" stroke="#C2AFAF" stroke-width="0.5625"/>
<line x1="230.906" y1="5.625" x2="230.906" y2="11.25" stroke="#C2AFAF" stroke-width="0.5625"/>
<line x1="281.531" y1="5.625" x2="281.531" y2="11.25" stroke="#C2AFAF" stroke-width="0.5625"/>
<line x1="332.156" y1="5.625" x2="332.156" y2="11.25" stroke="#C2AFAF" stroke-width="0.5625"/>
<line x1="11.5312" y1="5.625" x2="11.5312" y2="11.25" stroke="#C2AFAF" stroke-width="0.5625"/>
<line x1="62.1562" y1="5.625" x2="62.1562" y2="11.25" stroke="#C2AFAF" stroke-width="0.5625"/>
<line x1="112.781" y1="5.625" x2="112.781" y2="11.25" stroke="#C2AFAF" stroke-width="0.5625"/>
<line x1="163.406" y1="5.625" x2="163.406" y2="11.25" stroke="#C2AFAF" stroke-width="0.5625"/>
<line x1="214.031" y1="5.625" x2="214.031" y2="11.25" stroke="#C2AFAF" stroke-width="0.5625"/>
<line x1="264.656" y1="5.625" x2="264.656" y2="11.25" stroke="#C2AFAF" stroke-width="0.5625"/>
<line x1="315.281" y1="5.625" x2="315.281" y2="11.25" stroke="#C2AFAF" stroke-width="0.5625"/>
<line x1="34.0312" y1="5.625" x2="34.0312" y2="11.25" stroke="#C2AFAF" stroke-width="0.5625"/>
<line x1="84.6562" y1="5.625" x2="84.6562" y2="11.25" stroke="#C2AFAF" stroke-width="0.5625"/>
<line x1="135.281" y1="5.625" x2="135.281" y2="11.25" stroke="#C2AFAF" stroke-width="0.5625"/>
<line x1="185.906" y1="5.625" x2="185.906" y2="11.25" stroke="#C2AFAF" stroke-width="0.5625"/>
<line x1="236.531" y1="5.625" x2="236.531" y2="11.25" stroke="#C2AFAF" stroke-width="0.5625"/>
<line x1="287.156" y1="5.625" x2="287.156" y2="11.25" stroke="#C2AFAF" stroke-width="0.5625"/>
<line x1="337.781" y1="5.625" x2="337.781" y2="11.25" stroke="#C2AFAF" stroke-width="0.5625"/>
<line x1="17.1562" y1="5.625" x2="17.1562" y2="11.25" stroke="#C2AFAF" stroke-width="0.5625"/>
<line x1="67.7812" y1="5.625" x2="67.7812" y2="11.25" stroke="#C2AFAF" stroke-width="0.5625"/>
<line x1="118.406" y1="5.625" x2="118.406" y2="11.25" stroke="#C2AFAF" stroke-width="0.5625"/>
<line x1="169.031" y1="5.625" x2="169.031" y2="11.25" stroke="#C2AFAF" stroke-width="0.5625"/>
<line x1="219.656" y1="5.625" x2="219.656" y2="11.25" stroke="#C2AFAF" stroke-width="0.5625"/>
<line x1="270.281" y1="5.625" x2="270.281" y2="11.25" stroke="#C2AFAF" stroke-width="0.5625"/>
<line x1="320.906" y1="5.625" x2="320.906" y2="11.25" stroke="#C2AFAF" stroke-width="0.5625"/>
<line x1="39.6562" y1="5.625" x2="39.6562" y2="11.25" stroke="#C2AFAF" stroke-width="0.5625"/>
<line x1="90.2812" y1="5.625" x2="90.2812" y2="11.25" stroke="#C2AFAF" stroke-width="0.5625"/>
<line x1="140.906" y1="5.625" x2="140.906" y2="11.25" stroke="#C2AFAF" stroke-width="0.5625"/>
<line x1="191.531" y1="5.625" x2="191.531" y2="11.25" stroke="#C2AFAF" stroke-width="0.5625"/>
<line x1="242.156" y1="5.625" x2="242.156" y2="11.25" stroke="#C2AFAF" stroke-width="0.5625"/>
<line x1="292.781" y1="5.625" x2="292.781" y2="11.25" stroke="#C2AFAF" stroke-width="0.5625"/>
<line x1="343.406" y1="5.625" x2="343.406" y2="11.25" stroke="#C2AFAF" stroke-width="0.5625"/>
<line x1="22.7812" y1="5.625" x2="22.7812" y2="11.25" stroke="#C2AFAF" stroke-width="0.5625"/>
<line x1="73.4062" y1="5.625" x2="73.4062" y2="11.25" stroke="#C2AFAF" stroke-width="0.5625"/>
<line x1="124.031" y1="5.625" x2="124.031" y2="11.25" stroke="#C2AFAF" stroke-width="0.5625"/>
<line x1="174.656" y1="5.625" x2="174.656" y2="11.25" stroke="#C2AFAF" stroke-width="0.5625"/>
<line x1="225.281" y1="5.625" x2="225.281" y2="11.25" stroke="#C2AFAF" stroke-width="0.5625"/>
<line x1="275.906" y1="5.625" x2="275.906" y2="11.25" stroke="#C2AFAF" stroke-width="0.5625"/>
<line x1="326.531" y1="5.625" x2="326.531" y2="11.25" stroke="#C2AFAF" stroke-width="0.5625"/>
<line x1="45.2812" y1="5.625" x2="45.2812" y2="11.25" stroke="#C2AFAF" stroke-width="0.5625"/>
<line x1="95.9062" y1="5.625" x2="95.9062" y2="11.25" stroke="#C2AFAF" stroke-width="0.5625"/>
<line x1="146.531" y1="5.625" x2="146.531" y2="11.25" stroke="#C2AFAF" stroke-width="0.5625"/>
<line x1="197.156" y1="5.625" x2="197.156" y2="11.25" stroke="#C2AFAF" stroke-width="0.5625"/>
<line x1="247.781" y1="5.625" x2="247.781" y2="11.25" stroke="#C2AFAF" stroke-width="0.5625"/>
<line x1="298.406" y1="5.625" x2="298.406" y2="11.25" stroke="#C2AFAF" stroke-width="0.5625"/>
<line x1="349.031" y1="5.625" x2="349.031" y2="11.25" stroke="#C2AFAF" stroke-width="0.5625"/>
<line x1="50.9062" y1="5.625" x2="50.9062" y2="11.25" stroke="#C2AFAF" stroke-width="0.5625"/>
<line x1="101.531" y1="5.625" x2="101.531" y2="11.25" stroke="#C2AFAF" stroke-width="0.5625"/>
<line x1="152.156" y1="5.625" x2="152.156" y2="11.25" stroke="#C2AFAF" stroke-width="0.5625"/>
<line x1="202.781" y1="5.625" x2="202.781" y2="11.25" stroke="#C2AFAF" stroke-width="0.5625"/>
<line x1="253.406" y1="5.625" x2="253.406" y2="11.25" stroke="#C2AFAF" stroke-width="0.5625"/>
<line x1="354.656" y1="5.625" x2="354.656" y2="11.25" stroke="#C2AFAF" stroke-width="0.5625"/>
</svg>
